<svg width="53" height="53" viewBox="0 0 53 53" fill="none" xmlns="http://www.w3.org/2000/svg">
<g id="Add Image">
<path id="Vector" d="M41.9583 22.0833C41.3726 22.0833 40.8109 22.316 40.3968 22.7301C39.9826 23.1442 39.75 23.7059 39.75 24.2916V31.7558L36.4816 28.4875C35.3276 27.3425 33.7679 26.7001 32.1423 26.7001C30.5166 26.7001 28.9569 27.3425 27.8029 28.4875L26.257 30.0554L20.7804 24.5566C19.6264 23.4117 18.0666 22.7693 16.441 22.7693C14.8154 22.7693 13.2556 23.4117 12.1016 24.5566L8.83329 27.847V15.4583C8.83329 14.8726 9.06596 14.3109 9.4801 13.8968C9.89424 13.4826 10.4559 13.25 11.0416 13.25H28.7083C29.294 13.25 29.8557 13.0173 30.2698 12.6032C30.684 12.189 30.9166 11.6273 30.9166 11.0416C30.9166 10.4559 30.684 9.89424 30.2698 9.4801C29.8557 9.06596 29.294 8.83329 28.7083 8.83329H11.0416C9.28457 8.83329 7.59947 9.53128 6.35704 10.7737C5.11462 12.0161 4.41663 13.7012 4.41663 15.4583V42.4441C4.42245 44.0705 5.07112 45.6287 6.22117 46.7787C7.37123 47.9288 8.92938 48.5775 10.5558 48.5833H38.0275C38.6259 48.5785 39.2206 48.4893 39.7941 48.3183C41.0693 47.9606 42.1919 47.1945 42.9897 46.1374C43.7875 45.0802 44.2165 43.7906 44.2108 42.4662V24.2916C44.2108 23.9979 44.1523 23.7071 44.0386 23.4362C43.9248 23.1654 43.7582 22.9199 43.5485 22.7143C43.3387 22.5086 43.09 22.3469 42.817 22.2385C42.5439 22.1302 42.252 22.0774 41.9583 22.0833ZM11.0416 44.1666C10.4559 44.1666 9.89424 43.934 9.4801 43.5198C9.06596 43.1057 8.83329 42.544 8.83329 41.9583V34.0745L15.2154 27.6925C15.5381 27.3715 15.9748 27.1913 16.43 27.1913C16.8851 27.1913 17.3218 27.3715 17.6445 27.6925L34.1408 44.1666H11.0416ZM39.75 41.9583C39.7358 42.3859 39.5977 42.8002 39.3525 43.1508L29.3708 33.125L30.9387 31.5791C31.097 31.4175 31.286 31.2892 31.4946 31.2015C31.7031 31.1139 31.9271 31.0688 32.1533 31.0688C32.3795 31.0688 32.6035 31.1139 32.812 31.2015C33.0206 31.2892 33.2096 31.4175 33.3679 31.5791L39.75 38.0054V41.9583ZM46.375 8.83329H44.1666V6.62496C44.1666 6.03927 43.934 5.47757 43.5198 5.06343C43.1057 4.64929 42.544 4.41663 41.9583 4.41663C41.3726 4.41663 40.8109 4.64929 40.3968 5.06343C39.9826 5.47757 39.75 6.03927 39.75 6.62496V8.83329H37.5416C36.9559 8.83329 36.3942 9.06596 35.9801 9.4801C35.566 9.89424 35.3333 10.4559 35.3333 11.0416C35.3333 11.6273 35.566 12.189 35.9801 12.6032C36.3942 13.0173 36.9559 13.25 37.5416 13.25H39.75V15.4583C39.75 16.044 39.9826 16.6057 40.3968 17.0198C40.8109 17.434 41.3726 17.6666 41.9583 17.6666C42.544 17.6666 43.1057 17.434 43.5198 17.0198C43.934 16.6057 44.1666 16.044 44.1666 15.4583V13.25H46.375C46.9606 13.25 47.5223 13.0173 47.9365 12.6032C48.3506 12.189 48.5833 11.6273 48.5833 11.0416C48.5833 10.4559 48.3506 9.89424 47.9365 9.4801C47.5223 9.06596 46.9606 8.83329 46.375 8.83329Z" fill="black"/>
</g>
</svg>
