<svg width="16" height="18" viewBox="0 0 16 18" fill="none" xmlns="http://www.w3.org/2000/svg">
<g id="instagramlogo-31-Group88-31-Group2017-31-Group2018-31-5-31-Desktop-3" clip-path="url(#clip0_140_48)">
<path id="Vector-31-instagramlogo-31-Group88-31-Group2017-31-Group2018-31-5-31-Desktop-3" d="M8.00429 4.95683C5.73286 4.95683 3.90072 6.76035 3.90072 8.99628C3.90072 11.2322 5.73286 13.0357 8.00429 13.0357C10.2757 13.0357 12.1079 11.2322 12.1079 8.99628C12.1079 6.76035 10.2757 4.95683 8.00429 4.95683ZM8.00429 11.6225C6.53644 11.6225 5.33644 10.4447 5.33644 8.99628C5.33644 7.54785 6.53286 6.37011 8.00429 6.37011C9.47572 6.37011 10.6721 7.54785 10.6721 8.99628C10.6721 10.4447 9.47215 11.6225 8.00429 11.6225ZM13.2329 4.7916C13.2329 5.31543 12.8043 5.73379 12.2757 5.73379C11.7436 5.73379 11.3186 5.31191 11.3186 4.7916C11.3186 4.27129 11.7471 3.84941 12.2757 3.84941C12.8043 3.84941 13.2329 4.27129 13.2329 4.7916ZM15.9507 5.74785C15.89 4.48574 15.5971 3.36777 14.6579 2.44668C13.7221 1.52559 12.5864 1.2373 11.3043 1.17402C9.98286 1.1002 6.02215 1.1002 4.70072 1.17402C3.42215 1.23379 2.28644 1.52207 1.34715 2.44316C0.407868 3.36426 0.118583 4.48222 0.0542968 5.74433C-0.0207031 7.04511 -0.0207031 10.9439 0.0542968 12.2447C0.115011 13.5068 0.407868 14.6248 1.34715 15.5459C2.28644 16.467 3.41858 16.7553 4.70072 16.8185C6.02215 16.8924 9.98286 16.8924 11.3043 16.8185C12.5864 16.7588 13.7221 16.4705 14.6579 15.5459C15.5936 14.6248 15.8864 13.5068 15.9507 12.2447C16.0257 10.9439 16.0257 7.04863 15.9507 5.74785ZM14.2436 13.6404C13.965 14.3295 13.4257 14.8603 12.7221 15.1381C11.6686 15.5494 9.16858 15.4545 8.00429 15.4545C6.84001 15.4545 4.33644 15.5459 3.28644 15.1381C2.58644 14.8639 2.04715 14.333 1.76501 13.6404C1.34715 12.6033 1.44358 10.1424 1.44358 8.99628C1.44358 7.85019 1.35072 5.38574 1.76501 4.35215C2.04358 3.66308 2.58287 3.13223 3.28644 2.85449C4.34001 2.44316 6.84001 2.53809 8.00429 2.53809C9.16858 2.53809 11.6721 2.44668 12.7221 2.85449C13.4221 3.12871 13.9614 3.65957 14.2436 4.35215C14.6614 5.38926 14.565 7.85019 14.565 8.99628C14.565 10.1424 14.6614 12.6068 14.2436 13.6404Z" fill="#0E0F1D"/>
</g>
<defs>
<clipPath id="clip0_140_48">
<rect width="16" height="18" fill="white"/>
</clipPath>
</defs>
</svg>
